<svg data-v-5f19e91b="" xmlns="http://www.w3.org/2000/svg" width="573" height="78" viewBox="0 0 573 78"><!----> <!----> <!----> <g data-v-5f19e91b="" id="8bae1f2a-76be-6e9e-7bc3-59096f6d4f42" fill="black" transform="matrix(6.444682845940221,0,0,6.444682845940221,105.07053895158495,0.20131559840572777)"><path d="M4.96 5.85L4.96 5.85L4.96 5.85Q4.96 5.87 5.12 5.89L5.12 5.89L5.12 5.89Q5.28 5.92 5.51 6.00L5.51 6.00L5.51 6.00Q5.74 6.08 6.02 6.22L6.02 6.22L6.02 6.22Q6.30 6.36 6.53 6.59L6.53 6.59L6.53 6.59Q6.76 6.82 6.92 7.15L6.92 7.15L6.92 7.15Q7.08 7.48 7.08 7.92L7.08 7.92L7.08 7.92Q7.08 8.81 6.75 9.32L6.75 9.32L6.75 9.32Q6.41 9.83 5.88 10.09L5.88 10.09L5.88 10.09Q5.35 10.35 4.68 10.42L4.68 10.42L4.68 10.42Q4.02 10.50 3.35 10.50L3.35 10.50L1.16 10.50L1.16 1.36L3.54 1.36L3.54 1.36Q4.21 1.36 4.82 1.47L4.82 1.47L4.82 1.47Q5.42 1.58 5.87 1.88L5.87 1.88L5.87 1.88Q6.31 2.17 6.58 2.67L6.58 2.67L6.58 2.67Q6.85 3.16 6.85 3.93L6.85 3.93L6.85 3.93Q6.85 4.54 6.55 4.91L6.55 4.91L6.55 4.91Q6.26 5.29 5.91 5.50L5.91 5.50L5.91 5.50Q5.56 5.71 5.26 5.78L5.26 5.78L5.26 5.78Q4.96 5.85 4.96 5.85ZM2.58 2.52L2.58 5.24L3.77 5.24L3.77 5.24Q4.07 5.24 4.38 5.16L4.38 5.16L4.38 5.16Q4.68 5.08 4.91 4.91L4.91 4.91L4.91 4.91Q5.15 4.73 5.29 4.45L5.29 4.45L5.29 4.45Q5.43 4.17 5.43 3.78L5.43 3.78L5.43 3.78Q5.43 3.39 5.29 3.14L5.29 3.14L5.29 3.14Q5.15 2.88 4.91 2.75L4.91 2.75L4.91 2.75Q4.66 2.62 4.34 2.57L4.34 2.57L4.34 2.57Q4.02 2.52 3.67 2.52L3.67 2.52L2.58 2.52ZM2.58 9.37L3.71 9.37L3.71 9.37Q4.07 9.37 4.42 9.30L4.42 9.30L4.42 9.30Q4.76 9.24 5.02 9.09L5.02 9.09L5.02 9.09Q5.28 8.93 5.44 8.65L5.44 8.65L5.44 8.65Q5.60 8.37 5.60 7.92L5.60 7.92L5.60 7.92Q5.60 7.48 5.44 7.17L5.44 7.17L5.44 7.17Q5.28 6.87 5.00 6.70L5.00 6.70L5.00 6.70Q4.73 6.52 4.37 6.45L4.37 6.45L4.37 6.45Q4.00 6.38 3.61 6.38L3.61 6.38L2.58 6.38L2.58 9.37ZM12.64 10.67L12.64 10.67L12.64 10.67Q11.44 10.67 10.69 10.31L10.69 10.31L10.69 10.31Q9.94 9.95 9.52 9.39L9.52 9.39L9.52 9.39Q9.10 8.83 8.95 8.14L8.95 8.14L8.95 8.14Q8.79 7.45 8.79 6.78L8.79 6.78L8.79 6.78Q8.79 6.10 9.01 5.46L9.01 5.46L9.01 5.46Q9.23 4.82 9.64 4.31L9.64 4.31L9.64 4.31Q10.05 3.81 10.65 3.50L10.65 3.50L10.65 3.50Q11.26 3.19 12.04 3.19L12.04 3.19L12.04 3.19Q12.98 3.19 13.61 3.52L13.61 3.52L13.61 3.52Q14.24 3.85 14.62 4.38L14.62 4.38L14.62 4.38Q14.99 4.90 15.15 5.54L15.15 5.54L15.15 5.54Q15.30 6.17 15.30 6.78L15.30 6.78L15.30 7.22L10.19 7.22L10.19 7.22Q10.25 7.90 10.50 8.41L10.50 8.41L10.50 8.41Q10.61 8.64 10.78 8.86L10.78 8.86L10.78 8.86Q10.95 9.07 11.19 9.24L11.19 9.24L11.19 9.24Q11.44 9.41 11.76 9.51L11.76 9.51L11.76 9.51Q12.08 9.60 12.50 9.60L12.50 9.60L12.50 9.60Q12.95 9.60 13.35 9.50L13.35 9.50L13.35 9.50Q13.75 9.39 14.06 9.27L14.06 9.27L14.06 9.27Q14.42 9.11 14.73 8.92L14.73 8.92L14.74 10.12L14.74 10.12Q14.74 10.12 14.58 10.21L14.58 10.21L14.58 10.21Q14.42 10.30 14.14 10.40L14.14 10.40L14.14 10.40Q13.86 10.50 13.47 10.58L13.47 10.58L13.47 10.58Q13.09 10.67 12.64 10.67ZM10.19 6.24L13.90 6.24L13.90 6.24Q13.90 5.89 13.80 5.54L13.80 5.54L13.80 5.54Q13.69 5.18 13.47 4.89L13.47 4.89L13.47 4.89Q13.24 4.61 12.89 4.43L12.89 4.43L12.89 4.43Q12.54 4.26 12.04 4.26L12.04 4.26L12.04 4.26Q11.61 4.26 11.26 4.43L11.26 4.43L11.26 4.43Q10.92 4.61 10.68 4.89L10.68 4.89L10.68 4.89Q10.44 5.18 10.32 5.54L10.32 5.54L10.32 5.54Q10.19 5.89 10.19 6.24L10.19 6.24ZM20.71 3.19L20.71 3.19L20.71 3.19Q22.11 3.19 22.75 4.02L22.75 4.02L22.75 4.02Q23.39 4.84 23.39 6.37L23.39 6.37L23.39 10.50L22.06 10.50L22.06 6.73L22.06 6.73Q22.06 5.46 21.74 4.86L21.74 4.86L21.74 4.86Q21.42 4.26 20.61 4.26L20.61 4.26L20.61 4.26Q20.05 4.26 19.63 4.47L19.63 4.47L19.63 4.47Q19.22 4.68 18.94 5.06L18.94 5.06L18.94 5.06Q18.66 5.45 18.52 5.99L18.52 5.99L18.52 5.99Q18.38 6.52 18.38 7.18L18.38 7.18L18.38 10.50L17.07 10.50L17.07 3.36L18.17 3.36L18.38 4.49L18.38 4.49Q18.72 3.92 19.36 3.56L19.36 3.56L19.36 3.56Q20.01 3.19 20.71 3.19ZM28.71 3.19L28.71 3.19L28.71 3.19Q29.16 3.19 29.48 3.24L29.48 3.24L29.48 3.24Q29.81 3.29 30.02 3.35L30.02 3.35L30.02 3.35Q30.27 3.42 30.44 3.50L30.44 3.50L30.44 4.49L30.44 4.49Q29.81 4.28 29.13 4.26L29.13 4.26L29.13 4.26Q28.45 4.23 27.87 4.48L27.87 4.48L27.87 4.48Q27.30 4.73 26.93 5.32L26.93 5.32L26.93 5.32Q26.56 5.91 26.56 6.93L26.56 6.93L26.56 6.93Q26.56 7.97 26.93 8.55L26.93 8.55L26.93 8.55Q27.30 9.14 27.87 9.39L27.87 9.39L27.87 9.39Q28.45 9.63 29.13 9.59L29.13 9.59L29.13 9.59Q29.82 9.55 30.44 9.31L30.44 9.31L30.44 10.32L30.44 10.32Q30.27 10.43 30.02 10.50L30.02 10.50L30.02 10.50Q29.81 10.57 29.48 10.62L29.48 10.62L29.48 10.62Q29.16 10.67 28.71 10.67L28.71 10.67L28.71 10.67Q28.18 10.67 27.57 10.51L27.57 10.51L27.57 10.51Q26.95 10.35 26.41 9.93L26.41 9.93L26.41 9.93Q25.87 9.51 25.52 8.78L25.52 8.78L25.52 8.78Q25.16 8.05 25.16 6.93L25.16 6.93L25.16 6.93Q25.16 5.80 25.52 5.07L25.52 5.07L25.52 5.07Q25.87 4.34 26.41 3.93L26.41 3.93L26.41 3.93Q26.95 3.51 27.57 3.35L27.57 3.35L27.57 3.35Q28.18 3.19 28.71 3.19ZM35.84 3.19L35.84 3.19L35.84 3.19Q37.24 3.19 37.88 4.02L37.88 4.02L37.88 4.02Q38.53 4.84 38.53 6.37L38.53 6.37L38.53 10.50L37.20 10.50L37.20 6.73L37.20 6.73Q37.20 5.46 36.88 4.86L36.88 4.86L36.88 4.86Q36.55 4.26 35.74 4.26L35.74 4.26L35.74 4.26Q35.18 4.26 34.77 4.47L34.77 4.47L34.77 4.47Q34.36 4.68 34.08 5.06L34.08 5.06L34.08 5.06Q33.80 5.45 33.66 5.99L33.66 5.99L33.66 5.99Q33.52 6.52 33.52 7.18L33.52 7.18L33.52 10.50L32.20 10.50L32.20 1.62L33.52 1.62L33.52 4.49L33.52 4.49Q33.85 3.92 34.50 3.56L34.50 3.56L34.50 3.56Q35.14 3.19 35.84 3.19ZM48.50 3.19L48.50 3.19L48.50 3.19Q49.01 3.19 49.48 3.31L49.48 3.31L49.48 3.31Q49.94 3.43 50.28 3.78L50.28 3.78L50.28 3.78Q50.62 4.13 50.82 4.77L50.82 4.77L50.82 4.77Q51.02 5.40 51.02 6.43L51.02 6.43L51.02 10.50L49.69 10.50L49.69 6.29L49.69 6.29Q49.69 5.95 49.64 5.59L49.64 5.59L49.64 5.59Q49.60 5.24 49.47 4.93L49.47 4.93L49.47 4.93Q49.34 4.63 49.08 4.45L49.08 4.45L49.08 4.45Q48.83 4.26 48.43 4.26L48.43 4.26L48.43 4.26Q47.91 4.26 47.55 4.49L47.55 4.49L47.55 4.49Q47.19 4.72 46.97 5.10L46.97 5.10L46.97 5.10Q46.75 5.47 46.65 5.96L46.65 5.96L46.65 5.96Q46.55 6.45 46.55 6.96L46.55 6.96L46.55 10.50L45.22 10.50L45.22 6.29L45.22 6.29Q45.22 5.95 45.18 5.59L45.18 5.59L45.18 5.59Q45.14 5.24 45.00 4.93L45.00 4.93L45.00 4.93Q44.86 4.63 44.61 4.45L44.61 4.45L44.61 4.45Q44.37 4.26 43.96 4.26L43.96 4.26L43.96 4.26Q43.44 4.26 43.08 4.49L43.08 4.49L43.08 4.49Q42.73 4.72 42.50 5.10L42.50 5.10L42.50 5.10Q42.28 5.47 42.18 5.96L42.18 5.96L42.18 5.96Q42.08 6.45 42.08 6.96L42.08 6.96L42.08 10.50L40.77 10.50L40.77 3.36L41.86 3.36L42.07 4.41L42.07 4.41Q42.07 4.41 42.18 4.21L42.18 4.21L42.18 4.21Q42.29 4.02 42.55 3.79L42.55 3.79L42.55 3.79Q42.81 3.57 43.24 3.38L43.24 3.38L43.24 3.38Q43.67 3.19 44.30 3.19L44.30 3.19L44.30 3.19Q44.84 3.19 45.23 3.41L45.23 3.41L45.23 3.41Q45.63 3.63 45.87 3.89L45.87 3.89L45.87 3.89Q46.12 4.16 46.22 4.38L46.22 4.38L46.22 4.38Q46.33 4.59 46.33 4.59L46.33 4.59L46.33 4.59Q46.47 4.26 46.71 3.99L46.71 3.99L46.71 3.99Q46.96 3.72 47.25 3.55L47.25 3.55L47.25 3.55Q47.54 3.37 47.87 3.28L47.87 3.28L47.87 3.28Q48.20 3.19 48.50 3.19ZM56.07 3.19L56.07 3.19L56.07 3.19Q56.84 3.23 57.44 3.51L57.44 3.51L57.44 3.51Q57.69 3.64 57.95 3.82L57.95 3.82L57.95 3.82Q58.20 4.00 58.39 4.27L58.39 4.27L58.39 4.27Q58.59 4.54 58.71 4.89L58.71 4.89L58.71 4.89Q58.83 5.25 58.83 5.73L58.83 5.73L58.83 10.50L57.60 10.50L57.43 9.63L57.43 9.63Q57.43 9.63 57.29 9.80L57.29 9.80L57.29 9.80Q57.15 9.97 56.88 10.16L56.88 10.16L56.88 10.16Q56.62 10.35 56.23 10.51L56.23 10.51L56.23 10.51Q55.85 10.67 55.37 10.67L55.37 10.67L55.37 10.67Q54.21 10.67 53.49 10.14L53.49 10.14L53.49 10.14Q52.78 9.62 52.78 8.46L52.78 8.46L52.78 8.46Q52.78 7.78 53.10 7.34L53.10 7.34L53.10 7.34Q53.42 6.90 53.89 6.64L53.89 6.64L53.89 6.64Q54.36 6.38 54.89 6.29L54.89 6.29L54.89 6.29Q55.41 6.19 55.82 6.19L55.82 6.19L57.51 6.19L57.51 5.71L57.51 5.71Q57.46 5.07 57.17 4.75L57.17 4.75L57.17 4.75Q56.88 4.42 56.47 4.32L56.47 4.32L56.47 4.32Q56.06 4.21 55.57 4.29L55.57 4.29L55.57 4.29Q55.09 4.37 54.67 4.50L54.67 4.50L54.67 4.50Q54.25 4.63 53.94 4.78L53.94 4.78L53.94 4.78Q53.63 4.93 53.55 4.98L53.55 4.98L53.55 3.86L53.55 3.86Q53.94 3.68 54.36 3.53L54.36 3.53L54.36 3.53Q54.73 3.40 55.17 3.30L55.17 3.30L55.17 3.30Q55.62 3.19 56.07 3.19ZM55.48 9.60L55.48 9.60L55.48 9.60Q56.32 9.60 56.85 9.21L56.85 9.21L56.85 9.21Q57.39 8.81 57.51 8.16L57.51 8.16L57.51 7.14L56.77 7.14L56.77 7.14Q56.50 7.14 56.06 7.16L56.06 7.16L56.06 7.16Q55.62 7.18 55.20 7.29L55.20 7.29L55.20 7.29Q54.78 7.41 54.47 7.67L54.47 7.67L54.47 7.67Q54.17 7.92 54.17 8.40L54.17 8.40L54.17 8.40Q54.17 8.69 54.29 8.92L54.29 8.92L54.29 8.92Q54.42 9.14 54.61 9.30L54.61 9.30L54.61 9.30Q54.80 9.45 55.03 9.53L55.03 9.53L55.03 9.53Q55.27 9.60 55.48 9.60ZM65.06 3.30L65.06 4.47L65.06 4.47Q64.96 4.44 64.85 4.41L64.85 4.41L64.85 4.41Q64.75 4.38 64.63 4.36L64.63 4.36L64.63 4.36Q64.51 4.34 64.40 4.34L64.40 4.34L64.40 4.34Q63.80 4.34 63.41 4.61L63.41 4.61L63.41 4.61Q63.01 4.89 62.79 5.31L62.79 5.31L62.79 5.31Q62.57 5.73 62.47 6.24L62.47 6.24L62.47 6.24Q62.38 6.76 62.38 7.25L62.38 7.25L62.38 10.50L61.07 10.50L61.07 3.36L62.19 3.36L62.34 4.47L62.34 4.47Q62.54 4.12 62.78 3.84L62.78 3.84L62.78 3.84Q63.01 3.57 63.34 3.40L63.34 3.40L63.34 3.40Q63.66 3.23 64.08 3.20L64.08 3.20L64.08 3.20Q64.50 3.16 65.06 3.30L65.06 3.30ZM72.41 3.36L69.90 6.52L72.51 10.50L70.88 10.50L68.91 7.21L67.83 7.21L67.83 10.50L66.51 10.50L66.51 1.62L67.83 1.62L67.83 5.81L68.91 5.81L70.90 3.36L72.41 3.36Z"></path></g> <!----> <g data-v-5f19e91b="" id="817f03e2-ee12-49de-2877-fb0386db7ed9" transform="matrix(0.9305444505479601,0,0,0.9305444505479601,-0.2541541677112278,-7.4017575107544005)" stroke="none" fill="black"><path enable-background="new    " d="M70.68,8.125H8.382c-4.46,0-8.108,3.65-8.108,8.109v30.891  c0,4.459,3.649,8.108,8.108,8.108h7.594l10.469,10.469l10.468-10.469H70.68c4.46,0,8.108-3.648,8.108-8.108v-30.89  C78.789,11.776,75.14,8.125,70.68,8.125z"></path><path d="M91.617,34.297h-5.501v12.828c0,8.513-6.926,15.439-15.437,15.439H39.949l-8.322,8.32l-5.183,5.182l-5.181-5.182  l-0.053-0.051v2.463c0,4.461,3.651,8.109,8.109,8.109h33.768l10.469,10.469l10.469-10.469h7.594c4.46,0,8.109-3.648,8.109-8.109  V42.406C99.727,37.947,96.076,34.297,91.617,34.297z"></path></g></svg>