<svg data-v-1084b650="" xmlns="http://www.w3.org/2000/svg" viewBox="0 0 300 300"><!----> <!----> <rect data-v-1084b650="" fill="#ffffff" x="0" y="0" width="300px" height="300px" class="logo-background-square"></rect> <!----> <linearGradient data-v-1084b650="" gradientTransform="rotate(25)" id="f523b662-c7be-3b8f-a8cd-9eb7f67b5aa7" x1="0%" y1="0%" x2="100%" y2="0%"><stop data-v-1084b650="" offset="0%" style="stop-color: rgb(233, 13, 218); stop-opacity: 1;"></stop> <stop data-v-1084b650="" offset="100%" style="stop-color: rgb(21, 207, 241); stop-opacity: 1;"></stop></linearGradient> <g data-v-1084b650="" id="80ca0993-8009-9b81-371d-b1d1e9c1b64e" fill="url(#f523b662-c7be-3b8f-a8cd-9eb7f67b5aa7)" stroke="none" transform="matrix(0.6999999999999997,0,0,0.6999999999999997,44.9978891372681,45.001046752929724)"><svg xmlns="http://www.w3.org/2000/svg" xmlns:xlink="http://www.w3.org/1999/xlink" version="1.0" x="0px" y="0px" viewBox="0 0 100 100" enable-background="new 0 0 100 100" xml:space="preserve"><path enable-background="new    " d="M70.68,8.125H8.382c-4.46,0-8.108,3.65-8.108,8.109v30.891  c0,4.459,3.649,8.108,8.108,8.108h7.594l10.469,10.469l10.468-10.469H70.68c4.46,0,8.108-3.648,8.108-8.108v-30.89  C78.789,11.776,75.14,8.125,70.68,8.125z"></path><path d="M91.617,34.297h-5.501v12.828c0,8.513-6.926,15.439-15.437,15.439H39.949l-8.322,8.32l-5.183,5.182l-5.181-5.182  l-0.053-0.051v2.463c0,4.461,3.651,8.109,8.109,8.109h33.768l10.469,10.469l10.469-10.469h7.594c4.46,0,8.109-3.648,8.109-8.109  V42.406C99.727,37.947,96.076,34.297,91.617,34.297z"></path></svg></g></svg>